<svg width="14" height="24" viewBox="0 0 14 24" fill="none" xmlns="http://www.w3.org/2000/svg">
<g clip-path="url(#clip0_27_1035)">
<path fill-rule="evenodd" clip-rule="evenodd" d="M0.439213 23.6496C0.925213 24.1176 1.71121 24.1176 2.19601 23.6496L12.4716 13.7328C12.7016 13.5142 12.8848 13.2511 13.0099 12.9595C13.1351 12.6679 13.1996 12.3539 13.1996 12.0366C13.1996 11.7193 13.1351 11.4053 13.0099 11.1137C12.8848 10.8221 12.7016 10.559 12.4716 10.3404L2.12161 0.3504C1.88672 0.127137 1.57565 0.00164863 1.25159 -0.000580149C0.927522 -0.00280893 0.614758 0.118389 0.376813 0.3384C0.258939 0.447049 0.164625 0.578738 0.0997098 0.725315C0.034795 0.871892 0.000661974 1.03023 -0.000575455 1.19054C-0.00181288 1.35084 0.0298716 1.50969 0.0925159 1.65725C0.15516 1.80481 0.247431 1.93795 0.363613 2.0484L9.83641 11.1888C9.95152 11.2981 10.0432 11.4297 10.1058 11.5755C10.1684 11.7214 10.2007 11.8785 10.2007 12.0372C10.2007 12.1959 10.1684 12.353 10.1058 12.4989C10.0432 12.6447 9.95152 12.7763 9.83641 12.8856L0.439213 21.954C0.324145 22.0632 0.232511 22.1947 0.169892 22.3404C0.107273 22.4862 0.0749804 22.6432 0.0749804 22.8018C0.0749804 22.9604 0.107273 23.1174 0.169892 23.2632C0.232511 23.4089 0.324145 23.5404 0.439213 23.6496Z" fill="#A02EEF"/>
</g>
<defs>
<clipPath id="clip0_27_1035">
<rect width="13.2" height="24" fill="white"/>
</clipPath>
</defs>
</svg>
