<svg width="14" height="24" viewBox="0 0 14 24" fill="none" xmlns="http://www.w3.org/2000/svg">
<path fill-rule="evenodd" clip-rule="evenodd" d="M12.7609 0.350401C12.2749 -0.1176 11.4889 -0.1176 11.0041 0.350401L0.72846 10.2672C0.498445 10.4858 0.315292 10.7489 0.190139 11.0405C0.0649854 11.3321 0.0004474 11.6461 0.000447372 11.9634C0.000447344 12.2807 0.0649853 12.5947 0.190139 12.8863C0.315291 13.1779 0.498445 13.441 0.728459 13.6596L11.0785 23.6496C11.3134 23.8729 11.6244 23.9984 11.9485 24.0006C12.2726 24.0028 12.5853 23.8816 12.8233 23.6616C12.9411 23.553 13.0354 23.4213 13.1004 23.2747C13.1653 23.1281 13.1994 22.9698 13.2006 22.8095C13.2019 22.6492 13.1702 22.4903 13.1076 22.3427C13.0449 22.1952 12.9526 22.0621 12.8365 21.9516L3.36366 12.8112C3.24856 12.7019 3.1569 12.5703 3.09427 12.4245C3.03164 12.2786 2.99934 12.1215 2.99934 11.9628C2.99934 11.8041 3.03164 11.647 3.09427 11.5011C3.1569 11.3553 3.24856 11.2237 3.36366 11.1144L12.7609 2.046C12.8759 1.9368 12.9676 1.80532 13.0302 1.65956C13.0928 1.51381 13.1251 1.35684 13.1251 1.1982C13.1251 1.03957 13.0928 0.882589 13.0302 0.736835C12.9676 0.591082 12.8759 0.4596 12.7609 0.350401Z" fill="#A02EEF"/>
</svg>
