<svg width="14" height="24" viewBox="0 0 14 24" fill="none" xmlns="http://www.w3.org/2000/svg">
<g clip-path="url(#clip0_27_1037)">
<path fill-rule="evenodd" clip-rule="evenodd" d="M12.7608 0.3504C12.2748 -0.1176 11.4888 -0.1176 11.004 0.3504L0.728399 10.2672C0.498384 10.4858 0.315231 10.7489 0.190078 11.0405C0.0649246 11.3321 0.000386055 11.6461 0.000386027 11.9634C0.000385999 12.2807 0.0649245 12.5947 0.190078 12.8863C0.315231 13.1779 0.498383 13.441 0.728398 13.6596L11.0784 23.6496C11.3133 23.8729 11.6244 23.9984 11.9484 24.0006C12.2725 24.0028 12.5853 23.8816 12.8232 23.6616C12.9411 23.553 13.0354 23.4213 13.1003 23.2747C13.1652 23.1281 13.1994 22.9698 13.2006 22.8095C13.2018 22.6492 13.1701 22.4903 13.1075 22.3427C13.0449 22.1952 12.9526 22.0621 12.8364 21.9516L3.3636 12.8112C3.2485 12.7019 3.15684 12.5703 3.09421 12.4245C3.03158 12.2786 2.99928 12.1215 2.99928 11.9628C2.99928 11.8041 3.03158 11.647 3.09421 11.5011C3.15684 11.3553 3.2485 11.2237 3.3636 11.1144L12.7608 2.046C12.8759 1.9368 12.9675 1.80532 13.0301 1.65957C13.0927 1.51381 13.125 1.35684 13.125 1.1982C13.125 1.03957 13.0927 0.882589 13.0301 0.736835C12.9675 0.591082 12.8759 0.459601 12.7608 0.3504Z" fill="#A02EEF"/>
</g>
<defs>
<clipPath id="clip0_27_1037">
<rect width="13.2" height="24" fill="white" transform="translate(13.2 24) rotate(-180)"/>
</clipPath>
</defs>
</svg>
