<svg width="15" height="15" viewBox="0 0 15 15" fill="none" xmlns="http://www.w3.org/2000/svg">
<path d="M9.22219 7.1803C9.21656 7.17561 9.20906 7.17374 9.20344 7.16905L5.5875 3.89624C5.38406 3.71342 5.05406 3.71342 4.85062 3.89624C4.84875 3.89811 4.84781 3.89999 4.84687 3.90186C4.79761 3.94254 4.75783 3.99348 4.7303 4.05112C4.70277 4.10877 4.68817 4.17173 4.6875 4.23561L4.6875 10.7822C4.68855 10.8472 4.70387 10.9113 4.73238 10.9697C4.76089 11.0282 4.8019 11.0797 4.8525 11.1206L4.85062 11.1225C4.95299 11.211 5.08377 11.2596 5.21906 11.2596C5.35436 11.2596 5.48514 11.211 5.5875 11.1225L9.22219 7.84217C9.27006 7.80134 9.3085 7.7506 9.33486 7.69347C9.36122 7.63633 9.37487 7.57416 9.37487 7.51124C9.37487 7.44832 9.36122 7.38614 9.33486 7.32901C9.3085 7.27187 9.27006 7.22114 9.22219 7.1803Z" fill="white"/>
</svg>
