<svg width="14" height="24" viewBox="0 0 14 24" fill="none" xmlns="http://www.w3.org/2000/svg">
<g clip-path="url(#clip0_133_1681)">
<path fill-rule="evenodd" clip-rule="evenodd" d="M0.639042 23.6496C1.12504 24.1176 1.91104 24.1176 2.39584 23.6496L12.6714 13.7328C12.9015 13.5142 13.0846 13.2511 13.2098 12.9595C13.3349 12.6679 13.3995 12.3539 13.3995 12.0366C13.3995 11.7193 13.3349 11.4053 13.2098 11.1137C13.0846 10.8221 12.9015 10.559 12.6714 10.3404L2.32144 0.3504C2.08655 0.127137 1.77548 0.00164863 1.45141 -0.000580149C1.12735 -0.00280893 0.814587 0.118389 0.576642 0.3384C0.458768 0.447049 0.364454 0.578738 0.299539 0.725315C0.234624 0.871892 0.200491 1.03023 0.199254 1.19054C0.198016 1.35084 0.229701 1.50969 0.292345 1.65725C0.354989 1.80481 0.44726 1.93795 0.563442 2.0484L10.0362 11.1888C10.1513 11.2981 10.243 11.4297 10.3056 11.5755C10.3683 11.7214 10.4006 11.8785 10.4006 12.0372C10.4006 12.1959 10.3683 12.353 10.3056 12.4989C10.243 12.6447 10.1513 12.7763 10.0362 12.8856L0.639042 21.954C0.523974 22.0632 0.43234 22.1947 0.369721 22.3404C0.307102 22.4862 0.27481 22.6432 0.27481 22.8018C0.27481 22.9604 0.307102 23.1174 0.369721 23.2632C0.43234 23.4089 0.523974 23.5404 0.639042 23.6496Z" fill="#A02EEF"/>
</g>
<defs>
<clipPath id="clip0_133_1681">
<rect width="13.2" height="24" fill="white" transform="translate(0.199951)"/>
</clipPath>
</defs>
</svg>
