<svg width="32" height="32" viewBox="0 0 32 32" fill="none" xmlns="http://www.w3.org/2000/svg">
<path d="M16 2.66666C8.66663 2.66666 2.66663 8.66666 2.66663 16C2.66663 23.3333 8.66663 29.3333 16 29.3333C23.3333 29.3333 29.3333 23.3333 29.3333 16C29.3333 8.66666 23.3333 2.66666 16 2.66666ZM20.9333 19.0667C21.4666 19.6 21.4666 20.4 20.9333 20.9333C20.4 21.4667 19.6 21.4667 19.0666 20.9333L16 17.8667L12.9333 20.9333C12.4 21.4667 11.6 21.4667 11.0666 20.9333C10.5333 20.4 10.5333 19.6 11.0666 19.0667L14.1333 16L11.0666 12.9333C10.5333 12.4 10.5333 11.6 11.0666 11.0667C11.6 10.5333 12.4 10.5333 12.9333 11.0667L16 14.1333L19.0666 11.0667C19.6 10.5333 20.4 10.5333 20.9333 11.0667C21.4666 11.6 21.4666 12.4 20.9333 12.9333L17.8666 16L20.9333 19.0667Z" fill="white"/>
</svg>
