<svg width="24" height="24" viewBox="0 0 24 24" fill="none" xmlns="http://www.w3.org/2000/svg">
<g clip-path="url(#clip0_133_1755)">
<path d="M20.7539 2.52164L20.7545 2.52204C23.2835 4.09386 24.8759 8.06569 21.8487 13.1903C21.7139 13.4076 18.7716 18.0746 11.9996 22.2365C5.34451 18.1496 2.45101 13.6811 2.1491 13.1954C-0.875151 8.06728 0.716813 4.09332 3.24453 2.52202L3.2453 2.52154C4.08448 1.99778 5.06051 1.71988 6.06944 1.71988C8.0661 1.71988 10.0027 2.8089 11.5052 4.8881L11.5942 5.01148L11.9997 5.57377L12.4052 5.01148L12.4944 4.88783C12.4944 4.88779 12.4945 4.88776 12.4945 4.88773C13.9946 2.80885 15.9303 1.71988 17.9277 1.71988C18.9367 1.71988 19.9139 1.99782 20.7539 2.52164Z" stroke="#EF6183"/>
</g>
<defs>
<clipPath id="clip0_133_1755">
<rect width="24" height="24" fill="white"/>
</clipPath>
</defs>
</svg>
