<svg width="32" height="32" viewBox="0 0 32 32" fill="none" xmlns="http://www.w3.org/2000/svg">
<path fill-rule="evenodd" clip-rule="evenodd" d="M9.99998 3L5.99998 3C5.20398 3 4.44098 3.316 3.87898 3.879C3.60021 4.15738 3.37908 4.48801 3.22825 4.85196C3.07742 5.21591 2.99985 5.60603 2.99998 6L2.99998 26C2.99998 26.796 3.31598 27.559 3.87898 28.121C4.15736 28.3998 4.48799 28.6209 4.85194 28.7717C5.21589 28.9226 5.60601 29.0001 5.99998 29L9.99998 29C10.2652 29 10.5196 28.8946 10.7071 28.7071C10.8946 28.5196 11 28.2652 11 28C11 27.7348 10.8946 27.4804 10.7071 27.2929C10.5196 27.1054 10.2652 27 9.99998 27L5.99998 27C5.86855 27.0004 5.73833 26.9748 5.61683 26.9247C5.49532 26.8746 5.38493 26.8009 5.29199 26.708C5.19905 26.6151 5.12541 26.5047 5.07529 26.3832C5.02518 26.2616 4.99958 26.1314 4.99998 26L4.99998 6C4.99958 5.86857 5.02518 5.73835 5.07529 5.61685C5.12541 5.49534 5.19905 5.38495 5.29199 5.29201C5.38493 5.19907 5.49532 5.12543 5.61683 5.07531C5.73833 5.0252 5.86855 4.9996 5.99998 5L9.99998 5C10.2652 5 10.5196 4.89464 10.7071 4.70711C10.8946 4.51957 11 4.26522 11 4C11 3.73478 10.8946 3.48043 10.7071 3.29289C10.5196 3.10536 10.2652 3 9.99998 3ZM25.586 15L13 15C12.7348 15 12.4804 15.1054 12.2929 15.2929C12.1053 15.4804 12 15.7348 12 16C12 16.2652 12.1053 16.5196 12.2929 16.7071C12.4804 16.8946 12.7348 17 13 17L25.586 17L23.293 19.293C23.1108 19.4816 23.01 19.7342 23.0123 19.9964C23.0146 20.2586 23.1198 20.5094 23.3052 20.6948C23.4906 20.8802 23.7414 20.9854 24.0036 20.9877C24.2658 20.99 24.5184 20.8892 24.707 20.707L28.707 16.707C28.7999 16.6142 28.8737 16.504 28.924 16.3827C28.9743 16.2614 29.0002 16.1313 29.0002 16C29.0002 15.8687 28.9743 15.7386 28.924 15.6173C28.8737 15.496 28.7999 15.3858 28.707 15.293L24.707 11.293C24.5184 11.1108 24.2658 11.01 24.0036 11.0123C23.7414 11.0146 23.4906 11.1198 23.3052 11.3052C23.1198 11.4906 23.0146 11.7414 23.0123 12.0036C23.01 12.2658 23.1108 12.5184 23.293 12.707L25.586 15Z" fill="#A02EEF"/>
</svg>
