<svg width="238" height="27" viewBox="0 0 238 27" fill="none" xmlns="http://www.w3.org/2000/svg">
<path d="M0.104 26V0.799998H2.768V23.696H16.88V26H0.104ZM32.6072 26V21.824L32.4992 21.14V14.156C32.4992 12.548 32.0432 11.312 31.1312 10.448C30.2432 9.584 28.9112 9.152 27.1352 9.152C25.9112 9.152 24.7472 9.356 23.6432 9.764C22.5392 10.172 21.6032 10.712 20.8352 11.384L19.6832 9.476C20.6432 8.66 21.7952 8.036 23.1392 7.604C24.4832 7.148 25.8992 6.92 27.3872 6.92C29.8352 6.92 31.7192 7.532 33.0392 8.756C34.3832 9.956 35.0552 11.792 35.0552 14.264V26H32.6072ZM26.0912 26.18C24.6752 26.18 23.4392 25.952 22.3832 25.496C21.3512 25.016 20.5592 24.368 20.0072 23.552C19.4552 22.712 19.1792 21.752 19.1792 20.672C19.1792 19.688 19.4072 18.8 19.8632 18.008C20.3432 17.192 21.1112 16.544 22.1672 16.064C23.2472 15.56 24.6872 15.308 26.4872 15.308H33.0032V17.216H26.5592C24.7352 17.216 23.4632 17.54 22.7432 18.188C22.0472 18.836 21.6992 19.64 21.6992 20.6C21.6992 21.68 22.1192 22.544 22.9592 23.192C23.7992 23.84 24.9752 24.164 26.4872 24.164C27.9272 24.164 29.1632 23.84 30.1952 23.192C31.2512 22.52 32.0192 21.56 32.4992 20.312L33.0752 22.076C32.5952 23.324 31.7552 24.32 30.5552 25.064C29.3792 25.808 27.8912 26.18 26.0912 26.18ZM42.5376 26V0.799998H44.7336L56.2536 20.456H55.1016L66.5136 0.799998H68.7096V26H66.1536V4.796H66.7656L56.2536 22.796H54.9936L44.4096 4.796H45.0936V26H42.5376ZM88.2244 26V21.824L88.1164 21.14V14.156C88.1164 12.548 87.6604 11.312 86.7484 10.448C85.8604 9.584 84.5284 9.152 82.7524 9.152C81.5284 9.152 80.3644 9.356 79.2604 9.764C78.1564 10.172 77.2204 10.712 76.4524 11.384L75.3004 9.476C76.2604 8.66 77.4124 8.036 78.7564 7.604C80.1004 7.148 81.5164 6.92 83.0044 6.92C85.4524 6.92 87.3364 7.532 88.6564 8.756C90.0004 9.956 90.6724 11.792 90.6724 14.264V26H88.2244ZM81.7084 26.18C80.2924 26.18 79.0564 25.952 78.0004 25.496C76.9684 25.016 76.1764 24.368 75.6244 23.552C75.0724 22.712 74.7964 21.752 74.7964 20.672C74.7964 19.688 75.0244 18.8 75.4804 18.008C75.9604 17.192 76.7284 16.544 77.7844 16.064C78.8644 15.56 80.3044 15.308 82.1044 15.308H88.6204V17.216H82.1764C80.3524 17.216 79.0804 17.54 78.3604 18.188C77.6644 18.836 77.3164 19.64 77.3164 20.6C77.3164 21.68 77.7364 22.544 78.5764 23.192C79.4164 23.84 80.5924 24.164 82.1044 24.164C83.5444 24.164 84.7804 23.84 85.8124 23.192C86.8684 22.52 87.6364 21.56 88.1164 20.312L88.6924 22.076C88.2124 23.324 87.3724 24.32 86.1724 25.064C84.9964 25.808 83.5084 26.18 81.7084 26.18ZM102.691 26.18C101.131 26.18 99.6548 25.964 98.2628 25.532C96.8708 25.076 95.7788 24.512 94.9868 23.84L96.1388 21.824C96.9068 22.4 97.8908 22.904 99.0908 23.336C100.291 23.744 101.551 23.948 102.871 23.948C104.671 23.948 105.967 23.672 106.759 23.12C107.551 22.544 107.947 21.788 107.947 20.852C107.947 20.156 107.719 19.616 107.263 19.232C106.831 18.824 106.255 18.524 105.535 18.332C104.815 18.116 104.011 17.936 103.123 17.792C102.235 17.648 101.347 17.48 100.459 17.288C99.5948 17.096 98.8028 16.82 98.0828 16.46C97.3628 16.076 96.7748 15.56 96.3188 14.912C95.8868 14.264 95.6708 13.4 95.6708 12.32C95.6708 11.288 95.9588 10.364 96.5348 9.548C97.1108 8.732 97.9508 8.096 99.0548 7.64C100.183 7.16 101.551 6.92 103.159 6.92C104.383 6.92 105.607 7.088 106.831 7.424C108.055 7.736 109.063 8.156 109.855 8.684L108.739 10.736C107.899 10.16 106.999 9.752 106.039 9.512C105.079 9.248 104.119 9.116 103.159 9.116C101.455 9.116 100.195 9.416 99.3788 10.016C98.5868 10.592 98.1908 11.336 98.1908 12.248C98.1908 12.968 98.4068 13.532 98.8388 13.94C99.2948 14.348 99.8828 14.672 100.603 14.912C101.347 15.128 102.151 15.308 103.015 15.452C103.903 15.596 104.779 15.776 105.643 15.992C106.531 16.184 107.335 16.46 108.055 16.82C108.799 17.156 109.387 17.648 109.819 18.296C110.275 18.92 110.503 19.748 110.503 20.78C110.503 21.884 110.191 22.844 109.567 23.66C108.967 24.452 108.079 25.076 106.903 25.532C105.751 25.964 104.347 26.18 102.691 26.18Z" fill="#FFB732"/>
<path d="M126.677 26.216C124.781 26.216 123.029 25.904 121.421 25.28C119.813 24.632 118.421 23.732 117.245 22.58C116.069 21.428 115.145 20.072 114.473 18.512C113.825 16.952 113.501 15.248 113.501 13.4C113.501 11.552 113.825 9.848 114.473 8.288C115.145 6.728 116.069 5.372 117.245 4.22C118.445 3.068 119.849 2.18 121.457 1.556C123.065 0.907999 124.817 0.583999 126.713 0.583999C128.537 0.583999 130.253 0.895999 131.861 1.52C133.469 2.12 134.825 3.032 135.929 4.256L134.237 5.948C133.205 4.892 132.065 4.136 130.817 3.68C129.569 3.2 128.225 2.96 126.785 2.96C125.273 2.96 123.869 3.224 122.573 3.752C121.277 4.256 120.149 4.988 119.189 5.948C118.229 6.884 117.473 7.988 116.921 9.26C116.393 10.508 116.129 11.888 116.129 13.4C116.129 14.912 116.393 16.304 116.921 17.576C117.473 18.824 118.229 19.928 119.189 20.888C120.149 21.824 121.277 22.556 122.573 23.084C123.869 23.588 125.273 23.84 126.785 23.84C128.225 23.84 129.569 23.6 130.817 23.12C132.065 22.64 133.205 21.872 134.237 20.816L135.929 22.508C134.825 23.732 133.469 24.656 131.861 25.28C130.253 25.904 128.525 26.216 126.677 26.216ZM147.928 26.18C146.104 26.18 144.46 25.772 142.996 24.956C141.556 24.116 140.416 22.976 139.576 21.536C138.736 20.072 138.316 18.404 138.316 16.532C138.316 14.636 138.736 12.968 139.576 11.528C140.416 10.088 141.556 8.96 142.996 8.144C144.436 7.328 146.08 6.92 147.928 6.92C149.8 6.92 151.456 7.328 152.896 8.144C154.36 8.96 155.5 10.088 156.316 11.528C157.156 12.968 157.576 14.636 157.576 16.532C157.576 18.404 157.156 20.072 156.316 21.536C155.5 22.976 154.36 24.116 152.896 24.956C151.432 25.772 149.776 26.18 147.928 26.18ZM147.928 23.912C149.296 23.912 150.508 23.612 151.564 23.012C152.62 22.388 153.448 21.524 154.048 20.42C154.672 19.292 154.984 17.996 154.984 16.532C154.984 15.044 154.672 13.748 154.048 12.644C153.448 11.54 152.62 10.688 151.564 10.088C150.508 9.464 149.308 9.152 147.964 9.152C146.62 9.152 145.42 9.464 144.364 10.088C143.308 10.688 142.468 11.54 141.844 12.644C141.22 13.748 140.908 15.044 140.908 16.532C140.908 17.996 141.22 19.292 141.844 20.42C142.468 21.524 143.308 22.388 144.364 23.012C145.42 23.612 146.608 23.912 147.928 23.912ZM172.442 6.92C173.978 6.92 175.322 7.22 176.474 7.82C177.65 8.396 178.562 9.284 179.21 10.484C179.882 11.684 180.218 13.196 180.218 15.02V26H177.662V15.272C177.662 13.28 177.158 11.78 176.15 10.772C175.166 9.74 173.774 9.224 171.974 9.224C170.63 9.224 169.454 9.5 168.446 10.052C167.462 10.58 166.694 11.36 166.142 12.392C165.614 13.4 165.35 14.624 165.35 16.064V26H162.794V7.1H165.242V12.284L164.846 11.312C165.446 9.944 166.406 8.876 167.726 8.108C169.046 7.316 170.618 6.92 172.442 6.92ZM195.151 26.18C193.183 26.18 191.455 25.772 189.967 24.956C188.479 24.116 187.315 22.976 186.475 21.536C185.635 20.072 185.215 18.404 185.215 16.532C185.215 14.66 185.611 13.004 186.403 11.564C187.219 10.124 188.323 8.996 189.715 8.18C191.131 7.34 192.715 6.92 194.467 6.92C196.243 6.92 197.815 7.328 199.183 8.144C200.575 8.936 201.667 10.064 202.459 11.528C203.251 12.968 203.647 14.636 203.647 16.532C203.647 16.652 203.635 16.784 203.611 16.928C203.611 17.048 203.611 17.18 203.611 17.324H187.159V15.416H202.243L201.235 16.172C201.235 14.804 200.935 13.592 200.335 12.536C199.759 11.456 198.967 10.616 197.959 10.016C196.951 9.416 195.787 9.116 194.467 9.116C193.171 9.116 192.007 9.416 190.975 10.016C189.943 10.616 189.139 11.456 188.563 12.536C187.987 13.616 187.699 14.852 187.699 16.244V16.64C187.699 18.08 188.011 19.352 188.635 20.456C189.283 21.536 190.171 22.388 191.299 23.012C192.451 23.612 193.759 23.912 195.223 23.912C196.375 23.912 197.443 23.708 198.427 23.3C199.435 22.892 200.299 22.268 201.019 21.428L202.459 23.084C201.619 24.092 200.563 24.86 199.291 25.388C198.043 25.916 196.663 26.18 195.151 26.18ZM214.825 26.18C213.049 26.18 211.681 25.7 210.721 24.74C209.761 23.78 209.281 22.424 209.281 20.672V2.924H211.837V20.528C211.837 21.632 212.113 22.484 212.665 23.084C213.241 23.684 214.057 23.984 215.113 23.984C216.241 23.984 217.177 23.66 217.921 23.012L218.821 24.848C218.317 25.304 217.705 25.64 216.985 25.856C216.289 26.072 215.569 26.18 214.825 26.18ZM205.897 9.224V7.1H217.597V9.224H205.897ZM235.318 26V21.824L235.21 21.14V14.156C235.21 12.548 234.754 11.312 233.842 10.448C232.954 9.584 231.622 9.152 229.846 9.152C228.622 9.152 227.458 9.356 226.354 9.764C225.25 10.172 224.314 10.712 223.546 11.384L222.394 9.476C223.354 8.66 224.506 8.036 225.85 7.604C227.194 7.148 228.61 6.92 230.098 6.92C232.546 6.92 234.43 7.532 235.75 8.756C237.094 9.956 237.766 11.792 237.766 14.264V26H235.318ZM228.802 26.18C227.386 26.18 226.15 25.952 225.094 25.496C224.062 25.016 223.27 24.368 222.718 23.552C222.166 22.712 221.89 21.752 221.89 20.672C221.89 19.688 222.118 18.8 222.574 18.008C223.054 17.192 223.822 16.544 224.878 16.064C225.958 15.56 227.398 15.308 229.198 15.308H235.714V17.216H229.27C227.446 17.216 226.174 17.54 225.454 18.188C224.758 18.836 224.41 19.64 224.41 20.6C224.41 21.68 224.83 22.544 225.67 23.192C226.51 23.84 227.686 24.164 229.198 24.164C230.638 24.164 231.874 23.84 232.906 23.192C233.962 22.52 234.73 21.56 235.21 20.312L235.786 22.076C235.306 23.324 234.466 24.32 233.266 25.064C232.09 25.808 230.602 26.18 228.802 26.18Z" fill="#B451FB"/>
</svg>
