<svg width="10" height="13" viewBox="0 0 10 13" fill="none" xmlns="http://www.w3.org/2000/svg">
<g clip-path="url(#clip0_105_1019)">
<path fill-rule="evenodd" clip-rule="evenodd" d="M9.5 5.77423C9.5 9.27423 5 12.2742 5 12.2742C5 12.2742 0.5 9.27423 0.5 5.77423C0.5 4.58076 0.974106 3.43616 1.81802 2.59225C2.66193 1.74834 3.80653 1.27423 5 1.27423C6.19347 1.27423 7.33807 1.74834 8.18198 2.59225C9.02589 3.43616 9.5 4.58076 9.5 5.77423Z" stroke="#3C3C3C" stroke-width="1.5" stroke-linecap="round" stroke-linejoin="round"/>
<path d="M5 7.27423C5.82843 7.27423 6.5 6.60266 6.5 5.77423C6.5 4.9458 5.82843 4.27423 5 4.27423C4.17157 4.27423 3.5 4.9458 3.5 5.77423C3.5 6.60266 4.17157 7.27423 5 7.27423Z" stroke="#3C3C3C" stroke-width="1.5" stroke-linecap="round" stroke-linejoin="round"/>
</g>
<defs>
<clipPath id="clip0_105_1019">
<rect width="10" height="12" fill="white" transform="translate(0 0.774231)"/>
</clipPath>
</defs>
</svg>
