<svg width="17" height="20" viewBox="0 0 17 20" fill="none" xmlns="http://www.w3.org/2000/svg">
<g clip-path="url(#clip0_54_2152)">
<path fill-rule="evenodd" clip-rule="evenodd" d="M15.8774 8.33334C15.8774 14.1667 8.37744 19.1667 8.37744 19.1667C8.37744 19.1667 0.877441 14.1667 0.877441 8.33334C0.877441 6.34421 1.66762 4.43656 3.07414 3.03004C4.48066 1.62351 6.38832 0.833336 8.37744 0.833336C10.3666 0.833336 12.2742 1.62351 13.6807 3.03004C15.0873 4.43656 15.8774 6.34421 15.8774 8.33334Z" stroke="#3C3C3C" stroke-width="2" stroke-linecap="round" stroke-linejoin="round"/>
<path d="M8.37744 10.8333C9.75815 10.8333 10.8774 9.71405 10.8774 8.33334C10.8774 6.95262 9.75815 5.83334 8.37744 5.83334C6.99673 5.83334 5.87744 6.95262 5.87744 8.33334C5.87744 9.71405 6.99673 10.8333 8.37744 10.8333Z" stroke="#3C3C3C" stroke-width="2" stroke-linecap="round" stroke-linejoin="round"/>
</g>
<defs>
<clipPath id="clip0_54_2152">
<rect width="16.6667" height="20" fill="white" transform="translate(0.0439453)"/>
</clipPath>
</defs>
</svg>
