<svg width="80" height="80" viewBox="0 0 80 80" fill="none" xmlns="http://www.w3.org/2000/svg">
<path d="M40.0196 11.7994C45.5037 8.29286 52.2157 7.39573 58.4021 9.34239C63.7827 11.0157 68.2569 14.8592 70.7845 19.9795C73.74 26.1853 74.1423 33.3361 71.9022 39.8453C69.8403 45.8376 66.4599 51.2698 62.0197 55.726C59.1085 58.7183 55.9714 61.4734 52.6373 63.966L52.4609 64.1158C51.3532 64.8615 49.8637 64.5686 49.1079 63.4566C48.7237 62.9195 48.5694 62.2468 48.6802 61.5919C48.791 60.937 49.1576 60.3558 49.6961 59.9808C52.8246 57.6236 55.7742 55.0294 58.5197 52.2203C62.4738 48.3292 65.4933 43.5612 67.3433 38.2872C69.1228 33.0319 68.7626 27.2696 66.3433 22.2867C64.3965 18.3667 60.9662 15.4239 56.8432 14.1366C51.5844 12.4613 45.8551 13.4769 41.4608 16.8632C40.5872 17.5225 39.3932 17.5225 38.5196 16.8632C34.1273 13.4722 28.3957 12.4562 23.1372 14.1366C18.9865 15.3954 15.5221 18.3294 13.5489 22.2567C11.1842 27.2359 10.8459 32.9652 12.6077 38.1973C14.4655 43.4586 17.4843 48.2152 21.4313 52.1004C27.2633 57.7974 33.6944 62.8217 40.6079 67.0822C41.4871 67.7036 41.8738 68.831 41.5657 69.875C41.2576 70.919 40.3248 71.6423 39.2549 71.6667C38.7726 71.6695 38.3009 71.5233 37.902 71.2471C30.7002 66.8098 24.0026 61.5743 17.9312 55.6361C13.4664 51.1945 10.0736 45.7585 8.01942 39.7554C5.85669 33.2552 6.30065 26.1479 9.25472 19.9795C11.7823 14.8592 16.2565 11.0157 21.6371 9.34239C27.8235 7.39573 34.5355 8.29286 40.0196 11.7994ZM52.9609 21.6574C57.3465 23.0678 60.4681 27.0282 60.8727 31.6952L60.8915 32.0863C60.8758 32.6058 60.6986 33.1105 60.3802 33.5251C59.9821 34.0432 59.3967 34.3771 58.755 34.4519C57.408 34.6292 56.1731 33.6656 55.9903 32.2945C55.8674 29.5254 54.0573 27.1305 51.4609 26.3018C50.4955 25.6878 50.0668 24.4814 50.4225 23.3801C50.7781 22.2788 51.8263 21.5675 52.9609 21.6574Z" fill="#B451FB"/>
</svg>
