<svg width="287" height="131" viewBox="0 0 287 131" fill="none" xmlns="http://www.w3.org/2000/svg">
<path d="M23.7943 92.7706L21.086 82.6631L40.6546 33.2921L56.4185 29.0682L37.499 78.2653L29.6019 78.0954L80.6956 64.4049L83.9753 76.6451L23.7943 92.7706ZM62.4055 97.0346L58.7531 83.4034L55.9369 71.039L52.682 58.8915L66.8696 55.0899L77.0567 93.1088L62.4055 97.0346Z" fill="#3C3C3C"/>
<path d="M116 64.6771C120.694 64.6771 124.5 60.6477 124.5 55.6771C124.5 50.7065 120.694 46.6771 116 46.6771C111.306 46.6771 107.5 50.7065 107.5 55.6771C107.5 60.6477 111.306 64.6771 116 64.6771Z" fill="#FFB732"/>
<path d="M132.5 50.6771C137.471 50.6771 141.5 46.4238 141.5 41.1771C141.5 35.9304 137.471 31.6771 132.5 31.6771C127.529 31.6771 123.5 35.9304 123.5 41.1771C123.5 46.4238 127.529 50.6771 132.5 50.6771Z" fill="#FFB732"/>
<path d="M154 50.6771C159.247 50.6771 163.5 46.4238 163.5 41.1771C163.5 35.9304 159.247 31.6771 154 31.6771C148.753 31.6771 144.5 35.9304 144.5 41.1771C144.5 46.4238 148.753 50.6771 154 50.6771Z" fill="#FFB732"/>
<path d="M170.5 64.6771C175.471 64.6771 179.5 60.6477 179.5 55.6771C179.5 50.7065 175.471 46.6771 170.5 46.6771C165.529 46.6771 161.5 50.7065 161.5 55.6771C161.5 60.6477 165.529 64.6771 170.5 64.6771Z" fill="#FFB732"/>
<path d="M162.73 74.5945C159.521 70.8707 156.828 67.6945 153.582 63.9707C151.885 61.9993 149.709 60.0279 147.127 59.1517C146.721 59.0057 146.315 58.8961 145.91 58.8231C144.988 58.6771 143.992 58.6771 143.033 58.6771C142.074 58.6771 141.078 58.6771 140.119 58.8596C139.713 58.9326 139.307 59.0422 138.901 59.1882C136.319 60.0644 134.18 62.0358 132.446 64.0072C129.237 67.731 126.545 70.9072 123.299 74.631C118.467 79.4135 112.528 84.7071 113.635 92.1181C114.704 95.8419 117.397 99.5292 122.229 100.588C124.922 101.136 133.516 98.9816 142.664 98.9816H143.328C152.475 98.9816 161.07 101.099 163.762 100.588C168.595 99.5292 171.287 95.8054 172.357 92.1181C173.5 84.6706 167.562 79.377 162.73 74.5945Z" fill="#FFB732"/>
<path d="M204.24 76.9702L206.948 66.8628L248.581 33.8905L264.345 38.1144L223.361 71.2606L216.607 67.165L267.701 80.8554L264.421 93.0957L204.24 76.9702ZM235.546 99.9685L239.199 86.3374L242.942 74.2214L246.197 62.0739L260.385 65.8755L250.198 103.894L235.546 99.9685Z" fill="#3C3C3C"/>
</svg>
