<svg width="80" height="80" viewBox="0 0 80 80" fill="none" xmlns="http://www.w3.org/2000/svg">
<path d="M24.375 57.5C30.9334 57.5 36.25 52.1834 36.25 45.625C36.25 39.0666 30.9334 33.75 24.375 33.75C17.8166 33.75 12.5 39.0666 12.5 45.625C12.5 52.1834 17.8166 57.5 24.375 57.5Z" stroke="#B451FB" stroke-width="4" stroke-miterlimit="10"/>
<path d="M7.5 76.25C7.5 71.2772 9.47544 66.5081 12.9917 62.9917C16.5081 59.4754 21.2772 57.5 26.25 57.5M43.75 76.25C43.75 73.7877 43.265 71.3495 42.3227 69.0747C41.3805 66.7998 39.9994 64.7328 38.2583 62.9917C36.5172 61.2506 34.4502 59.8695 32.1753 58.9273C29.9005 57.985 27.4623 57.5 25 57.5" stroke="#B451FB" stroke-width="4" stroke-miterlimit="10"/>
<path d="M53.125 27.5C59.6834 27.5 65 22.1834 65 15.625C65 9.06662 59.6834 3.75 53.125 3.75C46.5666 3.75 41.25 9.06662 41.25 15.625C41.25 22.1834 46.5666 27.5 53.125 27.5Z" stroke="#B451FB" stroke-width="4" stroke-miterlimit="10"/>
<path d="M36.25 45C36.25 35.325 44.6375 27.5 55 27.5M72.5 45C72.5 35.325 64.1125 27.5 53.75 27.5" stroke="#B451FB" stroke-width="4" stroke-miterlimit="10"/>
</svg>
