<svg width="80" height="80" viewBox="0 0 80 80" fill="none" xmlns="http://www.w3.org/2000/svg">
<path d="M15.725 41.7751C15.2594 41.3066 14.998 40.673 14.998 40.0126C14.998 39.3521 15.2594 38.7185 15.725 38.2501L38.225 15.7501C38.6934 15.2844 39.327 15.0231 39.9875 15.0231C40.648 15.0231 41.2816 15.2844 41.75 15.7501L64.25 38.2501C64.5117 38.4742 64.7243 38.75 64.8743 39.0601C65.0244 39.3703 65.1087 39.7081 65.122 40.0524C65.1353 40.3967 65.0773 40.74 64.9516 41.0609C64.8259 41.3817 64.6353 41.673 64.3916 41.9167C64.148 42.1603 63.8566 42.351 63.5358 42.4766C63.215 42.6023 62.8717 42.6603 62.5274 42.647C62.1831 42.6338 61.8452 42.5494 61.5351 42.3994C61.2249 42.2493 60.9491 42.0368 60.725 41.7751L40 21.0251L19.275 41.7751C19.0426 42.0094 18.7661 42.1954 18.4614 42.3223C18.1568 42.4492 17.83 42.5145 17.5 42.5145C17.17 42.5145 16.8432 42.4492 16.5386 42.3223C16.2339 42.1954 15.9574 42.0094 15.725 41.7751ZM41.75 38.2501C41.2816 37.7844 40.648 37.5231 39.9875 37.5231C39.327 37.5231 38.6934 37.7844 38.225 38.2501L15.725 60.7501C15.3154 61.2283 15.1014 61.8435 15.1257 62.4727C15.15 63.1019 15.4109 63.6987 15.8561 64.144C16.3013 64.5892 16.8982 64.85 17.5274 64.8743C18.1566 64.8986 18.7717 64.6846 19.25 64.2751L40 43.5251L60.725 64.2501C61.2033 64.6596 61.8184 64.8736 62.4476 64.8493C63.0768 64.825 63.6737 64.5642 64.1189 64.119C64.5641 63.6737 64.825 63.0769 64.8493 62.4477C64.8736 61.8185 64.6596 61.2033 64.25 60.7251L41.75 38.2501Z" fill="#B451FB"/>
</svg>
